# xmcd
#
# Track frame offsets:
#	150
#	13435
#	26356
#	37073
#	46728
#	60109
#	73950
#	90075
#	105417
#	117822
#	129447
#	145197
#
# Disc length: 2067 seconds
#
# Revision: 0
# Processed by: cddbd v1.5.2PL0 Copyright (c) Steve Scherf et al.
# Submitted via: audiograbber 1.83.01
#
DISCID=9408110c
DTITLE=The Dynamic 6 and 1 - African Sound
DYEAR=1900
DGENRE=African
TTITLE0=Moyambé
TTITLE1=Babalazi
TTITLE2=Pata Pata
TTITLE3=Malayshia
TTITLE4=Instrumental Merengue
TTITLE5=Sukisa
TTITLE6=Soy Del Monte
TTITLE7=Oserie
TTITLE8=Lolita
TTITLE9=Mr. Walker
TTITLE10=Bholengo
TTITLE11=Two Weeks A Fight
EXTD=
EXTT0=
EXTT1=
EXTT2=
EXTT3=
EXTT4=
EXTT5=
EXTT6=
EXTT7=
EXTT8=
EXTT9=
EXTT10=
EXTT11=
PLAYORDER=
